C:/Program Files/Krita (x64)/bin/ffmpeg.exe -hide_banner -y -y -r 24 -start_number 0 -start_number_range 1 -i E:/GameDev/LineBlack_Volitile/Assets/Sprites/Player/frame%04d.png -c:v libopenh264 -b:v 5000k E:/GameDev/LineBlack_Volitile/Assets/Sprites/Player/WalkDown.mkv
=====================================================
Input #0, image2, from 'E:/GameDev/LineBlack_Volitile/Assets/Sprites/Player/frame%04d.png':
  Duration: 00:00:01.32, start: 0.000000, bitrate: N/A
  Stream #0:0: Video: png, rgba(pc), 32x64 [SAR 11811:11811 DAR 1:2], 25 fps, 25 tbr, 25 tbn, 25 tbc
Stream mapping:
  Stream #0:0 -> #0:0 (png (native) -> h264 (libopenh264))
Press [q] to stop, [?] for help
[libopenh264 @ 00000246bec17740] Slice count will be set automatically
[libopenh264 @ 00000246bec17740] [OpenH264] this = 0x00000246BEC90AE0, Warning:bEnableFrameSkip = 0,bitrate can't be controlled for RC_QUALITY_MODE,RC_BITRATE_MODE and RC_TIMESTAMP_MODE without enabling skip frame.
Output #0, matroska, to 'E:/GameDev/LineBlack_Volitile/Assets/Sprites/Player/WalkDown.mkv':
  Metadata:
    encoder         : Lavf58.76.100
  Stream #0:0: Video: h264 (H264 / 0x34363248), yuv420p(tv, progressive), 32x64 [SAR 1:1 DAR 1:2], q=2-31, 5000 kb/s, 24 fps, 1k tbn
    Metadata:
      encoder         : Lavc58.134.100 libopenh264
    Side data:
      cpb: bitrate max/min/avg: 5000000/0/5000000 buffer size: 0 vbv_delay: N/A
frame=    1 fps=0.0 q=-0.0 size=       1kB time=00:00:00.00 bitrate=4744.0kbits/s speed=1.25x    frame=   33 fps=0.0 q=-0.0 Lsize=       5kB time=00:00:01.33 bitrate=  32.5kbits/s speed= 245x    
video:4kB audio:0kB subtitle:0kB other streams:0kB global headers:0kB muxing overhead: 18.524195%
